<?xml version="1.0" encoding="utf-8"?>
<!-- Generator: Adobe Illustrator 25.3.1, SVG Export Plug-In . SVG Version: 6.00 Build 0)  -->
<svg version="1.1" id="Layer_1" xmlns="http://www.w3.org/2000/svg" xmlns:xlink="http://www.w3.org/1999/xlink" x="0px" y="0px"
	 viewBox="0 0 246.8 31.5" style="enable-background:new 0 0 246.8 31.5;" xml:space="preserve">
<style type="text/css">
	.st0{fill:#FFFFFF;}
</style>
<g>
	<g>
		<polygon class="st0" points="0.7,8.5 0,10.4 3.7,10.4 3.7,22.6 6.3,22.6 6.3,10.4 9.3,10.4 10,8.5 		"/>
		<polygon class="st0" points="21.4,8.5 22,9.6 22,14.3 16.4,14.3 16.4,8.5 13.3,8.5 13.9,9.6 13.9,22.6 16.4,22.6 16.4,16.2 
			22,16.2 22,22.6 24.5,22.6 24.5,8.5 		"/>
		<polygon class="st0" points="28.2,8.5 28.8,9.6 28.8,22.6 36.5,22.6 37.2,20.6 31.3,20.6 31.3,16.2 36.5,16.2 37.2,14.3 
			31.3,14.3 31.3,10.4 36.5,10.4 37.2,8.5 		"/>
		<polygon class="st0" points="245.9,30.9 245.9,0.9 239.3,0.9 240.6,3.2 240.6,30.9 		"/>
		<g>
			<path class="st0" d="M168.8,30.9V0.9h-5.5c0.2,0.4,1.2,2.2,1.2,2.5V22L149.7,0.9h-6.6l1.8,2.6v27.3h4.2V9.8l14.9,21.1H168.8z"/>
			<path class="st0" d="M135.2,26.2V0.9h-6.6l1.3,2.2v22.7c-1.6,0.9-2.8,1.4-4.6,1.4c-3.7,0-6.7-3.3-6.7-7.1V0.9h-6.6l1.3,2.2v18.6
				c0,5.6,4.4,9.7,9.7,9.7c4,0,6.3-1.3,9.6-3.4C133.4,27.5,134.3,26.9,135.2,26.2"/>
		</g>
		<polygon class="st0" points="106,0.9 99,0.9 99.8,3.2 93.6,14 86.1,0.9 79.7,0.9 90.3,18.9 90.3,30.9 95.6,30.9 95.6,18.8 		"/>
		<polygon class="st0" points="72.8,30.9 72.8,0.9 66.2,0.9 67.5,3.2 67.5,13.2 55.5,13.2 55.5,0.9 48.9,0.9 50.1,3.2 50.1,30.9 
			55.5,30.9 55.5,17.4 67.5,17.4 67.5,30.9 		"/>
		<g>
			<path class="st0" d="M189.1,0.9h-12.3l1.3,2.3v27.7h8.6c2.5,0,5-0.6,7.1-1.9c0.8-0.4,1.6-0.9,2.4-1.4c4.2-2.6,6.8-7.2,6.8-12.3
				C203,7.1,196.7,0.9,189.1,0.9 M193.2,25.8c-1.3,0.9-2.9,0.9-4.4,0.9h-5.4V5h3c6.3,0,11.2,5.1,11.2,11.6
				C197.6,20.1,196.1,23.9,193.2,25.8"/>
		</g>
		<path class="st0" d="M221.9,0.9h-5.8l1,2.2l-11.8,27.7h6.3l-0.8-2.3l2.5-6h12l3.5,8.2h5.8L221.9,0.9z M215,18.6l4.3-10.1l4.3,10.1
			H215z"/>
	</g>
</g>
</svg>
