<?xml version="1.0" encoding="utf-8"?>
<!-- Generator: Adobe Illustrator 25.3.1, SVG Export Plug-In . SVG Version: 6.00 Build 0)  -->
<svg version="1.1" id="Layer_1" xmlns="http://www.w3.org/2000/svg" xmlns:xlink="http://www.w3.org/1999/xlink" x="0px" y="0px"
	 viewBox="0 0 247 31" style="enable-background:new 0 0 247 31;" xml:space="preserve">
<style type="text/css">
	.st0{fill:#231F20;}
</style>
<g>
	<g>
		<polygon class="st0" points="0.77,7.84 0.04,9.74 3.79,9.74 3.79,21.88 6.31,21.88 6.31,9.74 9.34,9.74 10.05,7.84 		"/>
		<polygon class="st0" points="21.46,7.84 22.06,8.87 22.06,13.61 16.41,13.61 16.41,7.84 13.34,7.84 13.9,8.87 13.9,21.88 
			16.41,21.88 16.41,15.56 22.06,15.56 22.06,21.88 24.56,21.88 24.56,7.84 		"/>
		<polygon class="st0" points="28.23,7.84 28.81,8.87 28.81,21.88 36.54,21.88 37.25,19.96 31.34,19.96 31.34,15.56 36.54,15.56 
			37.25,13.65 31.34,13.65 31.34,9.73 36.54,9.73 37.25,7.84 		"/>
		<polygon class="st0" points="245.96,30.17 245.96,0.24 239.35,0.24 240.63,2.48 240.63,30.17 		"/>
		<g>
			<path class="st0" d="M168.85,30.17V0.24h-5.48c0.22,0.36,1.25,2.21,1.25,2.54v18.51L149.75,0.24h-6.56l1.79,2.64v27.29h4.23V9.08
				l14.89,21.09H168.85z"/>
			<path class="st0" d="M135.23,25.51V0.23h-6.64l1.31,2.25v22.7c-1.6,0.9-2.8,1.4-4.64,1.4c-3.75,0-6.69-3.26-6.69-7.1V0.23h-6.61
				l1.26,2.25v18.59c0,5.59,4.39,9.7,9.68,9.7c3.96,0,6.29-1.34,9.59-3.36C133.42,26.84,134.36,26.23,135.23,25.51"/>
		</g>
		<polygon class="st0" points="106.03,0.24 99.08,0.24 99.87,2.49 93.62,13.33 86.15,0.24 79.79,0.24 90.3,18.24 90.3,30.17 
			95.64,30.17 95.64,18.07 		"/>
		<polygon class="st0" points="72.86,30.17 72.86,0.24 66.27,0.24 67.52,2.48 67.52,12.56 55.51,12.56 55.51,0.24 48.91,0.24 
			50.17,2.48 50.17,30.17 55.51,30.17 55.51,16.73 67.52,16.73 67.52,30.17 		"/>
		<g>
			<path class="st0" d="M189.12,0.23h-12.28l1.25,2.25v27.68h8.63c2.51,0,4.97-0.63,7.15-1.95c0.79-0.43,1.57-0.93,2.38-1.41
				c4.23-2.64,6.84-7.17,6.84-12.35C203.08,6.44,196.76,0.23,189.12,0.23 M193.2,25.15c-1.35,0.85-2.85,0.95-4.39,0.95h-5.37V4.31h3
				c6.25,0,11.2,5.13,11.2,11.64C197.64,19.43,196.17,23.24,193.2,25.15"/>
		</g>
		<path class="st0" d="M221.95,0.24h-5.78l0.96,2.25l-11.79,27.68h6.29l-0.83-2.26l2.53-5.99h12.01l3.51,8.24h5.81L221.95,0.24z
			 M215.06,17.92l4.31-10.1l4.31,10.1H215.06z"/>
	</g>
</g>
</svg>
