<?xml version="1.0" encoding="utf-8"?>
<!-- Generator: Adobe Illustrator 25.3.1, SVG Export Plug-In . SVG Version: 6.00 Build 0)  -->
<svg version="1.1" id="Layer_1" xmlns="http://www.w3.org/2000/svg" xmlns:xlink="http://www.w3.org/1999/xlink" x="0px" y="0px"
	 viewBox="0 0 254.6 107.7" style="enable-background:new 0 0 254.6 107.7;" xml:space="preserve">
<g>
	<g>
		<polygon points="0.5,74 9.1,74 9.1,54.5 29.2,54.5 29.2,47 9.1,47 9.1,36.1 31.7,36.1 31.7,28.6 0.5,28.6 		"/>
		<path d="M86.4,33.7c-1.8-2.1-4.1-3.8-6.7-4.9C77,27.6,74,27,70.7,27c-3.2,0-6.2,0.6-8.8,1.8c-2.6,1.2-4.9,2.8-6.7,4.9
			c-1.8,2.1-3.3,4.6-4.3,7.5c-1,2.8-1.5,6-1.5,9.4c0,3.4,0.5,6.5,1.4,9.3c1,2.9,2.4,5.4,4.2,7.5c1.8,2.1,4.1,3.8,6.8,4.9
			c2.6,1.2,5.7,1.8,9,1.8c3.2,0,6.1-0.6,8.8-1.8c2.6-1.2,4.9-2.8,6.7-4.9c1.8-2.1,3.3-4.6,4.3-7.5c1-2.8,1.5-6,1.5-9.4
			c0-3.4-0.5-6.6-1.4-9.4C89.6,38.3,88.2,35.7,86.4,33.7z M84,50.5c0,2.7-0.4,5.1-1.1,7.1c-0.7,2-1.6,3.7-2.8,5
			c-1.2,1.3-2.6,2.3-4.1,3c-1.6,0.7-3.3,1-5.2,1c-1.9,0-3.7-0.3-5.3-1c-1.6-0.7-3-1.7-4.2-3c-1.2-1.3-2.1-3-2.8-5
			c-0.7-2-1.1-4.4-1.1-7.1s0.4-5.1,1.1-7.1c0.7-2,1.6-3.7,2.8-5c1.2-1.3,2.6-2.3,4.2-3c1.6-0.7,3.4-1,5.2-1c1.9,0,3.6,0.3,5.2,1
			c1.6,0.7,3,1.7,4.2,3c1.2,1.3,2.1,3,2.8,5C83.7,45.4,84,47.8,84,50.5z"/>
		<path d="M136.8,55.6c0,0.8,0,1.5-0.1,2.4c-0.1,0.8-0.2,1.5-0.4,2.1c-0.3,1-0.7,1.9-1.2,2.7c-0.5,0.8-1.1,1.4-1.9,2
			c-0.8,0.6-1.7,1-2.7,1.3c-1.1,0.3-2.3,0.5-3.7,0.5c-2.5,0-4.6-0.5-6.1-1.5c-1.5-1-2.5-2.4-3.2-4.2c-0.3-0.7-0.5-1.6-0.6-2.5
			c-0.1-0.9-0.2-1.9-0.2-2.8V27.8h-8v27.7c0,1.2,0.1,2.4,0.2,3.7c0.1,1.3,0.4,2.5,0.7,3.7c0.5,1.6,1.2,3.1,2,4.4
			c0.9,1.4,2.1,2.6,3.5,3.6c1.4,1,3.1,1.8,5,2.3c1.9,0.5,4.1,0.8,6.5,0.8c2.6,0,4.9-0.3,6.8-0.9c2-0.6,3.7-1.4,5.1-2.5
			c1.4-1.1,2.6-2.4,3.5-3.9c0.9-1.4,1.5-3,2-4.8c0.2-1,0.4-2.1,0.5-3.2c0.1-1.1,0.2-2.2,0.2-3.3V27.8h-8V55.6z"/>
		<path d="M246.3,28.6l-8.8,25.1c-0.5,1.5-1.2,3.5-1.9,5.8c-0.7-2.1-1.3-4.1-1.9-5.8l-8.8-25.1h-8.7V74h7.2V52c0-2.2,0-4.5-0.1-7
			c0.3,0.9,0.6,1.8,0.9,2.6l9.4,26.4h4l9.4-26.4c0.3-0.8,0.6-1.7,0.9-2.6c-0.1,2.5-0.1,4.8-0.1,7v22h7.2V28.6H246.3z"/>
		<path d="M197.4,42.2c0-3.7-1.2-6.7-3.7-9.1c-2.4-2.3-6.2-3.5-11.4-3.5h-18.6v43h7.7V54.9h10.9l6.7,17.7h8.2l-7.5-19
			C194.8,51.5,197.4,47.7,197.4,42.2z M187.3,47c-1.4,1.2-3.4,1.8-6.2,1.8h-9.6V35.8h10.3c2.4,0,4.3,0.6,5.6,1.7
			c1.3,1.2,2,2.7,2,4.6C189.3,44.2,188.7,45.8,187.3,47z"/>
	</g>
	<g>
		<path d="M37.2,107.9h-4.3V89.2h-5.9v-3.4h16v3.4h-5.9V107.9z"/>
		<path d="M69.6,107.9h-4v-9.6h-8.4v9.6h-4v-22h4v9.1h8.4v-9.1h4V107.9z"/>
		<path d="M115.8,102.5l3.5-0.8c0.4,2.2,2,3.3,4.8,3.3c1.3,0,2.2-0.3,2.9-0.8c0.7-0.6,1-1.3,1-2.1c0-0.6-0.2-1.2-0.5-1.7
			c-0.3-0.5-1-0.9-2-1.2l-3.8-1.1c-1.3-0.4-2.3-0.8-2.9-1.3c-0.6-0.5-1.1-1.2-1.5-2c-0.4-0.9-0.6-1.8-0.6-2.8c0-2,0.7-3.5,2-4.7
			c1.3-1.2,3-1.8,5-1.8c1.7,0,3.2,0.4,4.6,1.2c1.3,0.8,2.2,2,2.6,3.5l-3.4,0.9c-0.5-1.7-1.7-2.5-3.7-2.5c-1.1,0-2,0.3-2.5,0.8
			c-0.6,0.5-0.9,1.2-0.9,2c0,1.3,0.9,2.1,2.8,2.6l3.4,0.9c2,0.6,3.4,1.4,4.1,2.5c0.7,1.1,1,2.3,1,3.7c0,2.2-0.7,3.9-2.2,5.1
			c-1.5,1.2-3.4,1.9-5.7,1.9c-2,0-3.7-0.5-5.2-1.4C117.3,105.9,116.3,104.5,115.8,102.5z"/>
		<path d="M148.5,107.9h-4.3V89.2h-5.9v-3.4h16v3.4h-5.9V107.9z"/>
		<path d="M171,108.2c-3.4,0-6.1-1.1-8-3.3c-1.9-2.2-2.9-4.9-2.9-8.1c0-3.2,1-5.9,3-8c2-2.2,4.7-3.2,8-3.2c3.3,0,6,1.1,7.9,3.2
			c1.9,2.2,2.9,4.9,2.9,8.1c0,3.4-1,6.1-3,8.2C177,107.1,174.3,108.2,171,108.2z M171,105c1.7,0,3.1-0.6,4.2-1.8
			c1.2-1.2,1.7-3.3,1.7-6.4c0-2.5-0.5-4.5-1.4-5.9c-1-1.4-2.4-2.2-4.5-2.2c-4,0-6,2.7-6,8.2c0,2.7,0.5,4.7,1.5,6
			C167.7,104.3,169.1,105,171,105z"/>
		<path d="M206.2,107.9h-3.8l-3.1-9.1h-5v9.1h-3.6v-22h8.6c2.4,0,4.1,0.6,5.3,1.8c1.1,1.2,1.7,2.8,1.7,4.7c0,2.8-1.2,4.8-3.6,5.8
			L206.2,107.9z M194.4,95.6h4.4c1.3,0,2.2-0.3,2.9-0.9c0.6-0.6,0.9-1.4,0.9-2.5c0-1-0.3-1.8-0.9-2.3c-0.6-0.6-1.5-0.9-2.6-0.9h-4.7
			V95.6z"/>
		<path d="M228.5,107.9h-12.8v-22h12.6v3.3h-9.1v6h7.3v3.2h-7.3v6.2h9.2V107.9z"/>
		<path d="M92.5,107.9H79.8v-22h12.6v3.3h-9.1v6h7.3v3.2h-7.3v6.2h9.2V107.9z"/>
	</g>
	<g>
		<path d="M120.9,9.5V3.1L119.3,4V2.9l1.7-1h1v7.6"/>
		<path d="M123.5,11.4l5.3-10.9l1.1,0.2l-5.3,10.9L123.5,11.4z"/>
		<path d="M131.5,7.7L131.5,7.7h1h1.4v-2h1v2h1.3v0.9h-1.3v2.6h-1V8.5h-3.6V7.8l2.6-5.5h1.1L131.5,7.7z"/>
	</g>
</g>
</svg>
